<svg xmlns="http://www.w3.org/2000/svg" viewBox="0 0 175 201"><path fill="#3f7f00" stroke="#05c522" d="M118.2831163 62.28025484c-3.90983158-3.7743636-7.2814531-6.7826504-3.5528805.32733127 4.07382821 5.86386275 7.2065889 24.97090612-2.3870526 13.42342785-7.12570199-6.62673028-10.46476567-28.55476396-21.6123518-22.75382546-6.17228244 5.1660383 11.93090595 26.115841-1.5637609 23.23276199-7.71963936-6.9727908-9.4551629-28.01556978-20.6743135-25.76621525-7.97271908 7.64558955 6.84836756 21.07120097 8.69383682 30.79895235 5.7820795 7.3071586-2.5117345 14.45101388-5.91856478 4.61103002C59.099503 65.68889817 49.32929582 43.76096528 36.154892 23.923772c-3.4558225-2.49842644-14.98658872.42749675-13.40547106 5.05854196 15.64850072 30.78027975 32.39939702 61.04352612 46.91288396 92.36541977 5.71319083 10.98760499-9.07087334 8.13228004-10.93813322-1.23883627-6.32466925-6.50936442-13.80000699-6.44706345-22.58338463-9.02245296-14.1686728 3.83101895-2.10313829 15.21075965 4.60628382 18.91068153 7.03772367 4.37308952 20.44959666 11.20015047 27.5222944 14.84425072 5.93182125 3.33698016 15.72748982 13.08332552 23.84318592 17.86526444 5.13153548 5.04743437 7.7087118 12.18629409 11.21720534 17.95817919l51.35222317-27.3044614c-2.45961316-20.29960975-6.17748824-41.05973586-16.76000651-59.38761708-5.85619337-10.91872703-11.47761462-22.365321-19.63881164-31.69246583l-.00003643-.00002593zm42.392109 66.48317614c1.6455829 10.15529766 3.24556515 20.31480645 4.67548983 30.48483364-21.59292486 10.95808432-43.18609638 21.91632246-64.77901185 32.87442444-3.84630272-6.6817332-6.22475558-18.36631574-13.20474285-20.8752919-10.63883277-11.0668296-23.3377516-15.1725305-35.56802734-23.33017587-9.87490922-5.06654185-15.20157322-10.47514455-23.86439244-16.5252349-5.93976935-4.93562386-6.43646125-9.0539626-9.08754783-16.75851981 2.84428404-5.48743834 3.12041906-10.56903953 12.73931995-13.12279295 4.07096234 3.17871522 19.42010182 1.9515818 15.1666134-6.28722898C36.56969138 71.40468007 21.5378266 49.693293 12.8964199 25.28468091c3.7582121-9.22033626 18.35607076-18.35949648 28.1169395-10.33133065C48.7823066 23.4719988 53.05800425 34.5356017 58.748838 44.50587111c6.38790235-3.39572646 13.90542766-8.9221296 21.36993126-2.62424978 9.97038045 2.27959159 20.22199028-2.63816267 30.28181563 4.22861869 11.52842358 4.14398656 19.83640516 14.35151075 25.5099305 25.60008459 9.9151914 18.1194668 21.66983414 36.49106624 24.76523253 57.05289644l-.0004768.00025351.00001767-.00000939-.0000541-.00001653z"/></svg>